<svg id="visual" viewBox="0 0 1080 1080" width="1080" height="1080" xmlns="http://www.w3.org/2000/svg" xmlns:xlink="http://www.w3.org/1999/xlink" version="1.1"><path d="M0 23L10.7 42.7C21.3 62.3 42.7 101.7 63.8 114.2C85 126.7 106 112.3 127.2 98C148.3 83.7 169.7 69.3 190.8 78.3C212 87.3 233 119.7 254.2 123.3C275.3 127 296.7 102 317.8 80.5C339 59 360 41 381.2 39.2C402.3 37.3 423.7 51.7 444.8 66C466 80.3 487 94.7 508.2 92.8C529.3 91 550.7 73 571.8 78.3C593 83.7 614 112.3 635.2 112.3C656.3 112.3 677.7 83.7 698.8 85.5C720 87.3 741 119.7 762.2 119.7C783.3 119.7 804.7 87.3 825.8 80.2C847 73 868 91 889.2 94.7C910.3 98.3 931.7 87.7 952.8 82.3C974 77 995 77 1016.2 68C1037.3 59 1058.7 41 1069.3 32L1080 23L1080 0L1069.3 0C1058.7 0 1037.3 0 1016.2 0C995 0 974 0 952.8 0C931.7 0 910.3 0 889.2 0C868 0 847 0 825.8 0C804.7 0 783.3 0 762.2 0C741 0 720 0 698.8 0C677.7 0 656.3 0 635.2 0C614 0 593 0 571.8 0C550.7 0 529.3 0 508.2 0C487 0 466 0 444.8 0C423.7 0 402.3 0 381.2 0C360 0 339 0 317.8 0C296.7 0 275.3 0 254.2 0C233 0 212 0 190.8 0C169.7 0 148.3 0 127.2 0C106 0 85 0 63.8 0C42.7 0 21.3 0 10.7 0L0 0Z" fill="#fffffd"></path><path d="M0 44L10.7 72.8C21.3 101.7 42.7 159.3 63.8 172C85 184.7 106 152.3 127.2 143.3C148.3 134.3 169.7 148.7 190.8 164.8C212 181 233 199 254.2 197.2C275.3 195.3 296.7 173.7 317.8 143C339 112.3 360 72.7 381.2 72.7C402.3 72.7 423.7 112.3 444.8 144.8C466 177.3 487 202.7 508.2 188.3C529.3 174 550.7 120 571.8 107.3C593 94.7 614 123.3 635.2 123.3C656.3 123.3 677.7 94.7 698.8 98.3C720 102 741 138 762.2 150.5C783.3 163 804.7 152 825.8 144.8C847 137.7 868 134.3 889.2 125.3C910.3 116.3 931.7 101.7 952.8 105.2C974 108.7 995 130.3 1016.2 130.3C1037.3 130.3 1058.7 108.7 1069.3 97.8L1080 87L1080 21L1069.3 30C1058.7 39 1037.3 57 1016.2 66C995 75 974 75 952.8 80.3C931.7 85.7 910.3 96.3 889.2 92.7C868 89 847 71 825.8 78.2C804.7 85.3 783.3 117.7 762.2 117.7C741 117.7 720 85.3 698.8 83.5C677.7 81.7 656.3 110.3 635.2 110.3C614 110.3 593 81.7 571.8 76.3C550.7 71 529.3 89 508.2 90.8C487 92.7 466 78.3 444.8 64C423.7 49.7 402.3 35.3 381.2 37.2C360 39 339 57 317.8 78.5C296.7 100 275.3 125 254.2 121.3C233 117.7 212 85.3 190.8 76.3C169.7 67.3 148.3 81.7 127.2 96C106 110.3 85 124.7 63.8 112.2C42.7 99.7 21.3 60.3 10.7 40.7L0 21Z" fill="#f3f3f2"></path><path d="M0 87L10.7 112.3C21.3 137.7 42.7 188.3 63.8 195.7C85 203 106 167 127.2 163.3C148.3 159.7 169.7 188.3 190.8 206.3C212 224.3 233 231.7 254.2 224.5C275.3 217.3 296.7 195.7 317.8 170.3C339 145 360 116 381.2 119.5C402.3 123 423.7 159 444.8 187.8C466 216.7 487 238.3 508.2 231.2C529.3 224 550.7 188 571.8 175.5C593 163 614 174 635.2 170.5C656.3 167 677.7 149 698.8 150.7C720 152.3 741 173.7 762.2 188C783.3 202.3 804.7 209.7 825.8 202.5C847 195.3 868 173.7 889.2 166.5C910.3 159.3 931.7 166.7 952.8 181.2C974 195.7 995 217.3 1016.2 213.7C1037.3 210 1058.7 181 1069.3 166.5L1080 152L1080 85L1069.3 95.8C1058.7 106.7 1037.3 128.3 1016.2 128.3C995 128.3 974 106.7 952.8 103.2C931.7 99.7 910.3 114.3 889.2 123.3C868 132.3 847 135.7 825.8 142.8C804.7 150 783.3 161 762.2 148.5C741 136 720 100 698.8 96.3C677.7 92.7 656.3 121.3 635.2 121.3C614 121.3 593 92.7 571.8 105.3C550.7 118 529.3 172 508.2 186.3C487 200.7 466 175.3 444.8 142.8C423.7 110.3 402.3 70.7 381.2 70.7C360 70.7 339 110.3 317.8 141C296.7 171.7 275.3 193.3 254.2 195.2C233 197 212 179 190.8 162.8C169.7 146.7 148.3 132.3 127.2 141.3C106 150.3 85 182.7 63.8 170C42.7 157.3 21.3 99.7 10.7 70.8L0 42Z" fill="#e7e7e6"></path><path d="M0 260L10.7 274.5C21.3 289 42.7 318 63.8 328.8C85 339.7 106 332.3 127.2 328.7C148.3 325 169.7 325 190.8 319.7C212 314.3 233 303.7 254.2 305.5C275.3 307.3 296.7 321.7 317.8 314.3C339 307 360 278 381.2 278C402.3 278 423.7 307 444.8 341.3C466 375.7 487 415.3 508.2 390.2C529.3 365 550.7 275 571.8 249.7C593 224.3 614 263.7 635.2 265.3C656.3 267 677.7 231 698.8 220.3C720 209.7 741 224.3 762.2 247.8C783.3 271.3 804.7 303.7 825.8 310.8C847 318 868 300 889.2 292.8C910.3 285.7 931.7 289.3 952.8 301.8C974 314.3 995 335.7 1016.2 339.2C1037.3 342.7 1058.7 328.3 1069.3 321.2L1080 314L1080 150L1069.3 164.5C1058.7 179 1037.3 208 1016.2 211.7C995 215.3 974 193.7 952.8 179.2C931.7 164.7 910.3 157.3 889.2 164.5C868 171.7 847 193.3 825.8 200.5C804.7 207.7 783.3 200.3 762.2 186C741 171.7 720 150.3 698.8 148.7C677.7 147 656.3 165 635.2 168.5C614 172 593 161 571.8 173.5C550.7 186 529.3 222 508.2 229.2C487 236.3 466 214.7 444.8 185.8C423.7 157 402.3 121 381.2 117.5C360 114 339 143 317.8 168.3C296.7 193.7 275.3 215.3 254.2 222.5C233 229.7 212 222.3 190.8 204.3C169.7 186.3 148.3 157.7 127.2 161.3C106 165 85 201 63.8 193.7C42.7 186.3 21.3 135.7 10.7 110.3L0 85Z" fill="#dbdbdb"></path><path d="M0 347L10.7 354.2C21.3 361.3 42.7 375.7 63.8 381C85 386.3 106 382.7 127.2 373.7C148.3 364.7 169.7 350.3 190.8 339.5C212 328.7 233 321.3 254.2 339.3C275.3 357.3 296.7 400.7 317.8 407.8C339 415 360 386 381.2 371.5C402.3 357 423.7 357 444.8 378.7C466 400.3 487 443.7 508.2 431.2C529.3 418.7 550.7 350.3 571.8 332.3C593 314.3 614 346.7 635.2 343C656.3 339.3 677.7 299.7 698.8 288.8C720 278 741 296 762.2 324.8C783.3 353.7 804.7 393.3 825.8 397C847 400.7 868 368.3 889.2 364.7C910.3 361 931.7 386 952.8 409.3C974 432.7 995 454.3 1016.2 458C1037.3 461.7 1058.7 447.3 1069.3 440.2L1080 433L1080 312L1069.3 319.2C1058.7 326.3 1037.3 340.7 1016.2 337.2C995 333.7 974 312.3 952.8 299.8C931.7 287.3 910.3 283.7 889.2 290.8C868 298 847 316 825.8 308.8C804.7 301.7 783.3 269.3 762.2 245.8C741 222.3 720 207.7 698.8 218.3C677.7 229 656.3 265 635.2 263.3C614 261.7 593 222.3 571.8 247.7C550.7 273 529.3 363 508.2 388.2C487 413.3 466 373.7 444.8 339.3C423.7 305 402.3 276 381.2 276C360 276 339 305 317.8 312.3C296.7 319.7 275.3 305.3 254.2 303.5C233 301.7 212 312.3 190.8 317.7C169.7 323 148.3 323 127.2 326.7C106 330.3 85 337.7 63.8 326.8C42.7 316 21.3 287 10.7 272.5L0 258Z" fill="#d9d9d9"></path><path d="M0 509L10.7 518C21.3 527 42.7 545 63.8 546.7C85 548.3 106 533.7 127.2 513.8C148.3 494 169.7 469 190.8 476.3C212 483.7 233 523.3 254.2 552.2C275.3 581 296.7 599 317.8 575.5C339 552 360 487 381.2 476.2C402.3 465.3 423.7 508.7 444.8 532.2C466 555.7 487 559.3 508.2 534.2C529.3 509 550.7 455 571.8 431.5C593 408 614 415 635.2 400.5C656.3 386 677.7 350 698.8 359C720 368 741 422 762.2 445.5C783.3 469 804.7 462 825.8 442.2C847 422.3 868 389.7 889.2 400.3C910.3 411 931.7 465 952.8 513.7C974 562.3 995 605.7 1016.2 620.2C1037.3 634.7 1058.7 620.3 1069.3 613.2L1080 606L1080 431L1069.3 438.2C1058.7 445.3 1037.3 459.7 1016.2 456C995 452.3 974 430.7 952.8 407.3C931.7 384 910.3 359 889.2 362.7C868 366.3 847 398.7 825.8 395C804.7 391.3 783.3 351.7 762.2 322.8C741 294 720 276 698.8 286.8C677.7 297.7 656.3 337.3 635.2 341C614 344.7 593 312.3 571.8 330.3C550.7 348.3 529.3 416.7 508.2 429.2C487 441.7 466 398.3 444.8 376.7C423.7 355 402.3 355 381.2 369.5C360 384 339 413 317.8 405.8C296.7 398.7 275.3 355.3 254.2 337.3C233 319.3 212 326.7 190.8 337.5C169.7 348.3 148.3 362.7 127.2 371.7C106 380.7 85 384.3 63.8 379C42.7 373.7 21.3 359.3 10.7 352.2L0 345Z" fill="#dbdbdb"></path><path d="M0 746L10.7 758.7C21.3 771.3 42.7 796.7 63.8 771.5C85 746.3 106 670.7 127.2 632.8C148.3 595 169.7 595 190.8 614.8C212 634.7 233 674.3 254.2 699.5C275.3 724.7 296.7 735.3 317.8 699.3C339 663.3 360 580.7 381.2 600.5C402.3 620.3 423.7 742.7 444.8 787.7C466 832.7 487 800.3 508.2 764.3C529.3 728.3 550.7 688.7 571.8 663.5C593 638.3 614 627.7 635.2 649.3C656.3 671 677.7 725 698.8 730.3C720 735.7 741 692.3 762.2 703C783.3 713.7 804.7 778.3 825.8 812.5C847 846.7 868 850.3 889.2 828.8C910.3 807.3 931.7 760.7 952.8 735.5C974 710.3 995 706.7 1016.2 713.8C1037.3 721 1058.7 739 1069.3 748L1080 757L1080 604L1069.3 611.2C1058.7 618.3 1037.3 632.7 1016.2 618.2C995 603.7 974 560.3 952.8 511.7C931.7 463 910.3 409 889.2 398.3C868 387.7 847 420.3 825.8 440.2C804.7 460 783.3 467 762.2 443.5C741 420 720 366 698.8 357C677.7 348 656.3 384 635.2 398.5C614 413 593 406 571.8 429.5C550.7 453 529.3 507 508.2 532.2C487 557.3 466 553.7 444.8 530.2C423.7 506.7 402.3 463.3 381.2 474.2C360 485 339 550 317.8 573.5C296.7 597 275.3 579 254.2 550.2C233 521.3 212 481.7 190.8 474.3C169.7 467 148.3 492 127.2 511.8C106 531.7 85 546.3 63.8 544.7C42.7 543 21.3 525 10.7 516L0 507Z" fill="#e7e7e6"></path><path d="M0 930L10.7 930C21.3 930 42.7 930 63.8 937.2C85 944.3 106 958.7 127.2 976.7C148.3 994.7 169.7 1016.3 190.8 1014.5C212 1012.7 233 987.3 254.2 967.5C275.3 947.7 296.7 933.3 317.8 929.8C339 926.3 360 933.7 381.2 946.3C402.3 959 423.7 977 444.8 991.3C466 1005.7 487 1016.3 508.2 1009C529.3 1001.7 550.7 976.3 571.8 958.3C593 940.3 614 929.7 635.2 937C656.3 944.3 677.7 969.7 698.8 969.7C720 969.7 741 944.3 762.2 938.8C783.3 933.3 804.7 947.7 825.8 958.5C847 969.3 868 976.7 889.2 989.3C910.3 1002 931.7 1020 952.8 1018.2C974 1016.3 995 994.7 1016.2 1000C1037.3 1005.3 1058.7 1037.7 1069.3 1053.8L1080 1070L1080 755L1069.3 746C1058.7 737 1037.3 719 1016.2 711.8C995 704.7 974 708.3 952.8 733.5C931.7 758.7 910.3 805.3 889.2 826.8C868 848.3 847 844.7 825.8 810.5C804.7 776.3 783.3 711.7 762.2 701C741 690.3 720 733.7 698.8 728.3C677.7 723 656.3 669 635.2 647.3C614 625.7 593 636.3 571.8 661.5C550.7 686.7 529.3 726.3 508.2 762.3C487 798.3 466 830.7 444.8 785.7C423.7 740.7 402.3 618.3 381.2 598.5C360 578.7 339 661.3 317.8 697.3C296.7 733.3 275.3 722.7 254.2 697.5C233 672.3 212 632.7 190.8 612.8C169.7 593 148.3 593 127.2 630.8C106 668.7 85 744.3 63.8 769.5C42.7 794.7 21.3 769.3 10.7 756.7L0 744Z" fill="#f3f3f2"></path><path d="M0 1081L10.7 1081C21.3 1081 42.7 1081 63.8 1081C85 1081 106 1081 127.2 1081C148.3 1081 169.7 1081 190.8 1081C212 1081 233 1081 254.2 1081C275.3 1081 296.7 1081 317.8 1081C339 1081 360 1081 381.2 1081C402.3 1081 423.7 1081 444.8 1081C466 1081 487 1081 508.2 1081C529.3 1081 550.7 1081 571.8 1081C593 1081 614 1081 635.2 1081C656.3 1081 677.7 1081 698.8 1081C720 1081 741 1081 762.2 1081C783.3 1081 804.7 1081 825.8 1081C847 1081 868 1081 889.2 1081C910.3 1081 931.7 1081 952.8 1081C974 1081 995 1081 1016.2 1081C1037.3 1081 1058.7 1081 1069.3 1081L1080 1081L1080 1068L1069.3 1051.8C1058.7 1035.7 1037.3 1003.3 1016.2 998C995 992.7 974 1014.3 952.8 1016.2C931.7 1018 910.3 1000 889.2 987.3C868 974.7 847 967.3 825.8 956.5C804.7 945.7 783.3 931.3 762.2 936.8C741 942.3 720 967.7 698.8 967.7C677.7 967.7 656.3 942.3 635.2 935C614 927.7 593 938.3 571.8 956.3C550.7 974.3 529.3 999.7 508.2 1007C487 1014.3 466 1003.7 444.8 989.3C423.7 975 402.3 957 381.2 944.3C360 931.7 339 924.3 317.8 927.8C296.7 931.3 275.3 945.7 254.2 965.5C233 985.3 212 1010.7 190.8 1012.5C169.7 1014.3 148.3 992.7 127.2 974.7C106 956.7 85 942.3 63.8 935.2C42.7 928 21.3 928 10.7 928L0 928Z" fill="#fffffd"></path></svg>